<?xml version="1.0" encoding="UTF-8"?>
<svg id="_Слой_1" data-name=" Слой 1" xmlns="http://www.w3.org/2000/svg" viewBox="0 0 252.66 48.97">
  <defs>
    <style>
      .cls-1 {
        fill: #fff;
      }

      .cls-2 {
        fill: #1abc9c;
      }
    </style>
  </defs>
  <g id="_Слой_5" data-name=" Слой 5">
    <path class="cls-2" d="M14.16,19.15v-5.33c0-.19.05-.36.16-.53.44-.63,1.91-2.17,5.7-2.13s5.27,1.62,5.71,2.26c.11.16.16.32.16.51v5.21s-1.76-1.47-5.86-1.43-5.86,1.43-5.86,1.43h-.01,0Z"/>
    <path class="cls-2" d="M26.93,14.84l8.47-2.11-15.38-6.59-6.3,2.79h-3.07v6.76h.53v-1.31l1.9.54v-1.28c0-.38.09-.75.32-1.06.63-.86,2.34-2.41,6.61-2.41s5.81,1.39,6.51,2.28c.28.35.43.78.42,1.23v1.17h0Z"/>
    <polygon class="cls-2" points="4.73 12.7 9.8 10.47 9.8 14.06 4.73 12.7"/>
    <circle class="cls-2" cx="10.96" cy="15.86" r=".54"/>
    <path class="cls-2" d="M10.46,18.39c-.16,0-.3-.15-.27-.31l.22-1.85h1.08l.26,1.83c.03.16-.11.31-.27.31h-1.01v.02Z"/>
    <path class="cls-2" d="M16.2,20.44v10.13s1.55.98,2.59-.57v-11.07l-2.59,1.51Z"/>
    <path class="cls-2" d="M23.92,20.44v10.13s-1.55.98-2.59-.57v-11.07l2.59,1.51Z"/>
    <path class="cls-2" d="M17.03,32.37l1.76,3.34h2.42l1.85-3.34s-.69.13-1.32-.2-.71-.96-1.7-.96-1.02.79-1.68,1.01c-.85.27-1.33.15-1.33.15Z"/>
    <polygon class="cls-2" points="19.15 36.28 20.97 36.28 20.05 37.91 19.15 36.28"/>
    <path class="cls-2" d="M16.72,35.85c-3.39-1.36-5.58-4.59-5.58-8.24,0-4.9,3.99-8.89,8.89-8.89s8.89,3.99,8.89,8.89c0,3.65-2.18,6.88-5.56,8.24l-.5-1.25c2.87-1.16,4.73-3.91,4.73-6.99,0-4.16-3.38-7.54-7.54-7.54s-7.54,3.38-7.54,7.54c0,3.1,1.86,5.85,4.73,7l-.5,1.25h-.02Z"/>
  </g>
  <g>
    <path class="cls-1" d="M40.71,24.89v5.42h8.88v3.15h-12.18V13.4h12.03v3.15h-8.74v5.21h8.02v3.12h-8.02Z"/>
    <path class="cls-1" d="M59.93,18.76c1.66,0,2.99.53,4,1.59,1,1.06,1.5,2.5,1.5,4.31v8.8h-3.09v-8.48c0-1.07-.29-1.89-.86-2.46-.57-.57-1.36-.86-2.35-.86-1.13,0-2.02.35-2.66,1.05s-.97,1.72-.97,3.08v7.68h-3.09v-14.32h3.09v1.83c.96-1.47,2.44-2.21,4.44-2.21Z"/>
    <path class="cls-1" d="M80.16,21.25v-2.12h3.04v13.67c0,2.18-.72,3.85-2.15,5.01-1.41,1.17-3.15,1.75-5.21,1.75-3.3,0-5.57-1.16-6.79-3.47l2.66-1.55c.75,1.47,2.14,2.21,4.18,2.21,1.34,0,2.38-.35,3.14-1.05s1.13-1.67,1.13-2.91v-1.75c-1.17,1.66-2.83,2.49-4.98,2.49-2.01,0-3.72-.72-5.13-2.15-1.39-1.45-2.09-3.2-2.09-5.24s.7-3.8,2.09-5.21c1.39-1.45,3.1-2.18,5.13-2.18,2.16,0,3.82.83,4.98,2.49ZM72.33,29.36c.88.86,1.97,1.29,3.27,1.29s2.38-.43,3.24-1.29c.88-.86,1.32-1.93,1.32-3.21s-.44-2.35-1.32-3.21c-.86-.86-1.94-1.29-3.24-1.29s-2.39.43-3.27,1.29c-.86.86-1.29,1.93-1.29,3.21s.43,2.35,1.29,3.21Z"/>
    <path class="cls-1" d="M89.9,33.46h-3.09V12.55h3.09v20.91Z"/>
    <path class="cls-1" d="M96.4,16.41c-.38.38-.84.57-1.38.57s-1-.19-1.4-.57c-.38-.4-.57-.87-.57-1.4s.19-.99.57-1.38c.38-.4.85-.6,1.4-.6s1.02.2,1.4.6c.38.38.57.84.57,1.38s-.2,1-.6,1.4ZM96.57,33.46h-3.09v-14.32h3.09v14.32Z"/>
    <path class="cls-1" d="M102.85,23.09c0,.44.23.8.69,1.07.46.28,1.13.54,2.01.79.67.15,1.25.32,1.75.49.5.17,1.02.42,1.58.76.55.33.98.77,1.27,1.32.3.54.43,1.18.42,1.91,0,1.38-.53,2.46-1.6,3.24-1.07.78-2.4,1.17-3.98,1.17-1.41,0-2.63-.3-3.64-.89-1.01-.59-1.75-1.41-2.21-2.46l2.66-1.55c.48,1.38,1.54,2.06,3.18,2.06s2.44-.53,2.44-1.6c0-.78-.91-1.39-2.72-1.83-.69-.17-1.27-.34-1.73-.52-.47-.17-.98-.42-1.55-.74-.56-.33-.99-.75-1.29-1.29-.3-.53-.44-1.16-.42-1.86,0-1.32.5-2.38,1.49-3.18,1.01-.8,2.26-1.2,3.75-1.2,1.18,0,2.24.26,3.17.79.93.53,1.64,1.26,2.13,2.19l-2.61,1.46c-.48-1.09-1.38-1.63-2.69-1.63-.61,0-1.11.13-1.5.4-.39.27-.59.64-.59,1.12Z"/>
    <path class="cls-1" d="M120.64,18.76c1.66,0,2.99.53,4,1.59,1,1.06,1.5,2.5,1.5,4.31v8.8h-3.09v-8.48c0-1.07-.29-1.89-.86-2.46s-1.36-.86-2.35-.86c-1.13,0-2.02.35-2.67,1.05s-.97,1.72-.97,3.08v7.68h-3.09V13.4h3.09v7.56c.95-1.47,2.43-2.21,4.44-2.21Z"/>
    <path class="cls-1" d="M131.95,31.57h9.74v1.89h-11.75V13.4h11.6v1.89h-9.6v7.11h8.88v1.89h-8.88v7.28Z"/>
    <path class="cls-1" d="M156.42,33.46h-2.52l-7.16-6.91v6.91h-1.89V13.4h1.89v12.07l6.82-6.34h2.58l-7.39,6.88,7.68,7.45Z"/>
    <path class="cls-1" d="M159.34,22.85c0,.64.29,1.15.87,1.52s1.28.68,2.1.92c.82.23,1.64.47,2.46.7.82.23,1.51.66,2.08,1.27s.85,1.42.85,2.41c0,1.22-.48,2.22-1.45,2.98s-2.21,1.15-3.74,1.15c-1.38,0-2.55-.31-3.51-.92-.96-.61-1.64-1.4-2.02-2.38l1.6-.95c.27.75.75,1.33,1.45,1.76s1.52.64,2.48.64,1.72-.19,2.35-.56c.63-.37.95-.95.95-1.73,0-.65-.29-1.16-.86-1.55-.57-.38-1.27-.69-2.09-.92-.82-.23-1.64-.47-2.46-.7s-1.52-.65-2.09-1.25-.86-1.39-.86-2.36c0-1.17.46-2.14,1.39-2.92.93-.78,2.1-1.17,3.51-1.17,1.16,0,2.19.26,3.07.79.88.53,1.53,1.24,1.95,2.13l-1.58.92c-.55-1.34-1.7-2-3.44-2-.82,0-1.53.19-2.12.58-.59.38-.89.93-.89,1.65Z"/>
    <path class="cls-1" d="M178.54,18.79c2.04,0,3.79.73,5.23,2.18s2.16,3.23,2.16,5.33-.72,3.88-2.16,5.33c-1.44,1.45-3.18,2.18-5.23,2.18-2.54,0-4.47-1.05-5.79-3.15v8.54h-1.89v-20.05h1.89v2.81c1.32-2.1,3.25-3.15,5.79-3.15ZM174.38,30.32c1.09,1.1,2.43,1.65,4.01,1.65s2.92-.55,4.01-1.65c1.09-1.1,1.63-2.44,1.63-4.03s-.54-2.93-1.63-4.03c-1.09-1.1-2.43-1.65-4.01-1.65s-2.92.55-4.01,1.65-1.63,2.44-1.63,4.03.54,2.93,1.63,4.03Z"/>
    <path class="cls-1" d="M190.97,21.51c.88-1.74,2.39-2.61,4.53-2.61v1.83c-1.3,0-2.38.38-3.24,1.15s-1.29,1.97-1.29,3.61v7.96h-1.89v-14.32h1.89v2.38Z"/>
    <path class="cls-1" d="M203.84,18.79c2.12,0,3.83.75,5.14,2.25,1.31,1.5,1.96,3.27,1.96,5.31,0,.21-.02.51-.06.89h-12.58c.19,1.45.81,2.6,1.85,3.45,1.04.85,2.33,1.27,3.85,1.27,1.09,0,2.03-.22,2.82-.67.79-.45,1.39-1.04,1.79-1.76l1.66.97c-.63,1.01-1.49,1.82-2.58,2.41s-2.33.89-3.72.89c-2.25,0-4.09-.71-5.5-2.12s-2.12-3.21-2.12-5.39.7-3.93,2.09-5.36c1.39-1.43,3.19-2.15,5.39-2.15ZM203.84,20.62c-1.49,0-2.74.44-3.74,1.33-1,.89-1.6,2.04-1.79,3.45h10.69c-.19-1.51-.77-2.68-1.75-3.52-.97-.84-2.11-1.26-3.41-1.26Z"/>
    <path class="cls-1" d="M214.87,22.85c0,.64.29,1.15.87,1.52s1.28.68,2.1.92c.82.23,1.64.47,2.46.7.82.23,1.51.66,2.08,1.27s.85,1.42.85,2.41c0,1.22-.48,2.22-1.45,2.98s-2.21,1.15-3.74,1.15c-1.38,0-2.55-.31-3.51-.92-.96-.61-1.64-1.4-2.02-2.38l1.6-.95c.27.75.75,1.33,1.45,1.76s1.52.64,2.48.64,1.72-.19,2.35-.56c.63-.37.95-.95.95-1.73,0-.65-.29-1.16-.86-1.55-.57-.38-1.27-.69-2.09-.92-.82-.23-1.64-.47-2.46-.7s-1.52-.65-2.09-1.25-.86-1.39-.86-2.36c0-1.17.46-2.14,1.39-2.92.93-.78,2.1-1.17,3.51-1.17,1.16,0,2.19.26,3.07.79.88.53,1.53,1.24,1.95,2.13l-1.58.92c-.55-1.34-1.7-2-3.44-2-.82,0-1.53.19-2.12.58-.59.38-.89.93-.89,1.65Z"/>
    <path class="cls-1" d="M227.01,22.85c0,.64.29,1.15.87,1.52s1.28.68,2.1.92c.82.23,1.64.47,2.46.7.82.23,1.51.66,2.08,1.27s.85,1.42.85,2.41c0,1.22-.48,2.22-1.45,2.98s-2.21,1.15-3.74,1.15c-1.38,0-2.55-.31-3.51-.92-.96-.61-1.64-1.4-2.02-2.38l1.6-.95c.27.75.75,1.33,1.45,1.76s1.52.64,2.48.64,1.72-.19,2.35-.56c.63-.37.95-.95.95-1.73,0-.65-.29-1.16-.86-1.55-.57-.38-1.27-.69-2.09-.92-.82-.23-1.64-.47-2.46-.7s-1.52-.65-2.09-1.25-.86-1.39-.86-2.36c0-1.17.46-2.14,1.39-2.92.93-.78,2.1-1.17,3.51-1.17,1.16,0,2.19.26,3.07.79.88.53,1.53,1.24,1.95,2.13l-1.58.92c-.55-1.34-1.7-2-3.44-2-.82,0-1.53.19-2.12.58-.59.38-.89.93-.89,1.65Z"/>
  </g>
</svg>